<?xml version="1.0" encoding="UTF-8" standalone="no"?>
<!-- Created with Inkscape (http://www.inkscape.org/) -->

<svg
   xmlns:dc="http://purl.org/dc/elements/1.1/"
   xmlns:cc="http://creativecommons.org/ns#"
   xmlns:rdf="http://www.w3.org/1999/02/22-rdf-syntax-ns#"
   xmlns:svg="http://www.w3.org/2000/svg"
   xmlns="http://www.w3.org/2000/svg"
   xmlns:xlink="http://www.w3.org/1999/xlink"
   xmlns:sodipodi="http://sodipodi.sourceforge.net/DTD/sodipodi-0.dtd"
   xmlns:inkscape="http://www.inkscape.org/namespaces/inkscape"
   version="1.1"
   width="48"
   height="48"
   id="svg3989"
   inkscape:version="0.48.4 r9939"
   sodipodi:docname="subtivals.svg"
   inkscape:export-filename="/home/mathieu/Code/subtivals/resources/subtivals.png"
   inkscape:export-xdpi="360"
   inkscape:export-ydpi="360">
  <sodipodi:namedview
     pagecolor="#ffffff"
     bordercolor="#666666"
     borderopacity="1"
     objecttolerance="10"
     gridtolerance="10"
     guidetolerance="10"
     inkscape:pageopacity="0"
     inkscape:pageshadow="2"
     inkscape:window-width="1839"
     inkscape:window-height="1056"
     id="namedview3124"
     showgrid="false"
     inkscape:zoom="5.6"
     inkscape:cx="69.096717"
     inkscape:cy="0.23684226"
     inkscape:window-x="81"
     inkscape:window-y="24"
     inkscape:window-maximized="1"
     inkscape:current-layer="svg3989" />
  <defs
     id="defs3991">
    <linearGradient
       x1="7.8218575"
       y1="1060.3223"
       x2="7.8218575"
       y2="1056.8104"
       id="linearGradient3136-4"
       xlink:href="#linearGradient4396-1"
       gradientUnits="userSpaceOnUse"
       gradientTransform="matrix(0.98343575,0,0,1.0183684,29.255565,-38.693482)" />
    <linearGradient
       id="linearGradient4396-1">
      <stop
         id="stop4398-1"
         style="stop-color:#5c3566;stop-opacity:1"
         offset="0" />
      <stop
         id="stop4400-3"
         style="stop-color:#5c3566;stop-opacity:0"
         offset="1" />
    </linearGradient>
    <linearGradient
       x1="-5.2591991"
       y1="1090.3213"
       x2="-24.678143"
       y2="1068.0604"
       id="linearGradient3136"
       xlink:href="#linearGradient4396"
       gradientUnits="userSpaceOnUse"
       gradientTransform="translate(31.723745,-72.654612)" />
    <linearGradient
       id="linearGradient4396">
      <stop
         id="stop4398"
         style="stop-color:#5c3566;stop-opacity:1"
         offset="0" />
      <stop
         id="stop4400"
         style="stop-color:#5c3566;stop-opacity:0"
         offset="1" />
    </linearGradient>
    <linearGradient
       x1="-28.830627"
       y1="1063.8927"
       x2="1.3932861"
       y2="1092.7034"
       id="linearGradient3136-3"
       xlink:href="#linearGradient4396-6"
       gradientUnits="userSpaceOnUse"
       gradientTransform="matrix(-1,0,0,-1,28.155115,2111.3835)" />
    <linearGradient
       id="linearGradient4396-6">
      <stop
         id="stop4398-4"
         style="stop-color:#5c3566;stop-opacity:1"
         offset="0" />
      <stop
         id="stop4400-9"
         style="stop-color:#5c3566;stop-opacity:0"
         offset="1" />
    </linearGradient>
    <linearGradient
       x1="7.8218575"
       y1="1060.3223"
       x2="7.8218575"
       y2="1056.8104"
       id="linearGradient3136-4-8"
       xlink:href="#linearGradient4396-1-0"
       gradientUnits="userSpaceOnUse"
       gradientTransform="matrix(0.97239292,0,0,0.94489486,30.938575,46.069388)" />
    <linearGradient
       id="linearGradient4396-1-0">
      <stop
         id="stop4398-1-4"
         style="stop-color:#5c3566;stop-opacity:1"
         offset="0" />
      <stop
         id="stop4400-3-8"
         style="stop-color:#5c3566;stop-opacity:0"
         offset="1" />
    </linearGradient>
    <filter
       color-interpolation-filters="sRGB"
       id="filter4896">
      <feGaussianBlur
         id="feGaussianBlur4898"
         stdDeviation="1.185625" />
    </filter>
    <linearGradient
       inkscape:collect="always"
       xlink:href="#linearGradient4396"
       id="linearGradient3903"
       gradientUnits="userSpaceOnUse"
       gradientTransform="matrix(-0.72068318,0,0,-0.72085984,21.395144,810.6749)"
       x1="-28.830627"
       y1="1063.8927"
       x2="1.3932861"
       y2="1092.7034" />
    <radialGradient
       inkscape:collect="always"
       xlink:href="#linearGradient4396"
       id="radialGradient4073"
       cx="45.329662"
       cy="62.073689"
       fx="45.329662"
       fy="62.073689"
       r="7.9514718"
       gradientTransform="matrix(0.23121555,-0.58333502,1.112328,0.44110782,-46.221797,38.331081)"
       gradientUnits="userSpaceOnUse" />
    <linearGradient
       id="linearGradient4396-0">
      <stop
         id="stop4398-7"
         style="stop-color:#5c3566;stop-opacity:1"
         offset="0" />
      <stop
         id="stop4400-1"
         style="stop-color:#5c3566;stop-opacity:0"
         offset="1" />
    </linearGradient>
    <radialGradient
       r="7.9514718"
       fy="62.073689"
       fx="45.329662"
       cy="62.073689"
       cx="45.329662"
       gradientTransform="matrix(0.37750261,-0.95217006,1.8160835,0.72001448,-115.45187,3.4680377)"
       gradientUnits="userSpaceOnUse"
       id="radialGradient4090"
       xlink:href="#linearGradient4396-0"
       inkscape:collect="always" />
    <linearGradient
       inkscape:collect="always"
       xlink:href="#linearGradient4396"
       id="linearGradient4128"
       gradientUnits="userSpaceOnUse"
       gradientTransform="matrix(0.72068318,0,0,0.72085984,23.966996,-763.71046)"
       x1="-5.2591991"
       y1="1090.3213"
       x2="-24.678143"
       y2="1068.0604" />
    <radialGradient
       inkscape:collect="always"
       xlink:href="#linearGradient4396-08"
       id="radialGradient4073-9"
       cx="45.329662"
       cy="62.073689"
       fx="45.329662"
       fy="62.073689"
       r="7.9514718"
       gradientTransform="matrix(0.23121555,-0.58333502,1.112328,0.44110782,-46.221797,38.331081)"
       gradientUnits="userSpaceOnUse" />
    <linearGradient
       id="linearGradient4396-08">
      <stop
         id="stop4398-2"
         style="stop-color:#5c3566;stop-opacity:1"
         offset="0" />
      <stop
         id="stop4400-5"
         style="stop-color:#5c3566;stop-opacity:0"
         offset="1" />
    </linearGradient>
    <radialGradient
       r="7.9514718"
       fy="62.073689"
       fx="45.329662"
       cy="62.073689"
       cx="45.329662"
       gradientTransform="matrix(0.23121555,-0.58333502,1.112328,0.44110782,-45.047265,43.34048)"
       gradientUnits="userSpaceOnUse"
       id="radialGradient4145"
       xlink:href="#linearGradient4396-08"
       inkscape:collect="always" />
    <linearGradient
       inkscape:collect="always"
       xlink:href="#linearGradient4396"
       id="linearGradient4176"
       gradientUnits="userSpaceOnUse"
       gradientTransform="matrix(-0.72068318,0,0,-0.72085984,21.395144,810.6749)"
       x1="-28.830627"
       y1="1063.8927"
       x2="1.3932861"
       y2="1092.7034" />
    <linearGradient
       inkscape:collect="always"
       xlink:href="#linearGradient4396"
       id="linearGradient4180"
       gradientUnits="userSpaceOnUse"
       gradientTransform="matrix(-0.72068318,0,0,-0.72085984,21.395144,810.6749)"
       x1="-28.830627"
       y1="1063.8927"
       x2="1.3932861"
       y2="1092.7034" />
    <linearGradient
       inkscape:collect="always"
       xlink:href="#linearGradient4396"
       id="linearGradient4182"
       gradientUnits="userSpaceOnUse"
       gradientTransform="matrix(0.72068318,0,0,0.72085984,23.966996,-763.71046)"
       x1="-5.2591991"
       y1="1090.3213"
       x2="-24.678143"
       y2="1068.0604" />
    <linearGradient
       inkscape:collect="always"
       xlink:href="#linearGradient4396"
       id="linearGradient4186"
       gradientUnits="userSpaceOnUse"
       gradientTransform="matrix(0.72068318,0,0,0.72085984,23.966996,-763.71046)"
       x1="-5.2591991"
       y1="1090.3213"
       x2="-24.678143"
       y2="1068.0604" />
    <linearGradient
       inkscape:collect="always"
       xlink:href="#linearGradient4396"
       id="linearGradient4190"
       gradientUnits="userSpaceOnUse"
       gradientTransform="matrix(0.72068318,0,0,0.72085984,23.966996,-763.71046)"
       x1="-5.2591991"
       y1="1090.3213"
       x2="-24.678143"
       y2="1068.0604" />
  </defs>
  <metadata
     id="metadata3994">
    <rdf:RDF>
      <cc:Work
         rdf:about="">
        <dc:format>image/svg+xml</dc:format>
        <dc:type
           rdf:resource="http://purl.org/dc/dcmitype/StillImage" />
        <dc:title></dc:title>
      </cc:Work>
    </rdf:RDF>
  </metadata>
  <path
     style="fill:#e30946;fill-opacity:1"
     d="M 11.79907,44.303806 C 10.130815,43.930432 7.4075165,42.755039 6.4763058,42.006467 3.8742397,39.914736 2.4464215,37.728904 1.6705401,34.649364 1.3470935,33.365575 1.3047649,32.595305 1.3047649,27.993263 c 0,-5.642846 0.1555141,-6.849667 1.1675249,-9.060188 1.5542337,-3.394891 5.2257309,-6.343925 8.8562212,-7.113528 0.748979,-0.15877 2.352165,-0.255782 4.259658,-0.25776 3.048441,-0.0032 3.058679,-0.0045 3.061466,-0.414036 0.0015,-0.225977 0.08079,-0.534126 0.176122,-0.684777 C 18.961013,10.249223 18.270524,9.4565747 15.681952,6.854037 12.557571,3.7127972 12.382896,3.50094 12.675825,3.2080107 c 0.29293,-0.2929293 0.374641,-0.2480244 1.40624,0.7728082 0.602381,0.5960956 1.095238,1.1890996 1.095238,1.3177866 0,0.1286851 0.104117,0.2339745 0.231372,0.2339745 0.127256,0 1.127353,0.898767 2.222439,1.9972588 1.98689,1.9930698 1.992131,1.9967091 2.498667,1.7347682 0.653381,-0.3378763 2.406284,-0.338128 3.059304,-3.65e-4 l 0.506751,0.2620504 3.437794,-3.4413695 c 3.194309,-3.1976343 3.930498,-3.7605775 3.930498,-3.005559 0,0.1357082 -1.527126,1.7752596 -3.393611,3.6434479 -2.592302,2.5946671 -3.362875,3.4695982 -3.263446,3.7054242 0.07159,0.169798 0.168698,0.485436 0.215798,0.701419 0.0836,0.383383 0.175075,0.394477 3.856924,0.467797 3.518863,0.07007 3.860577,0.107452 5.105415,0.558444 3.420069,1.239054 5.815513,3.322459 7.377261,6.416257 1.128402,2.235349 1.117609,2.146567 1.19374,9.823227 l 0.07008,7.067205 0.888043,0.637997 c 1.115264,0.80124 2.247604,2.288233 2.825516,3.710477 0.364141,0.896138 0.82849,3.353237 0.82849,4.383874 0,0.187503 -3.381389,0.228909 -17.30203,0.211867 -9.516114,-0.01165 -17.466374,-0.05797 -17.667242,-0.102922 z m 14.871481,-3.907955 c 1.576332,-0.338062 3.100852,-1.204694 4.337006,-2.465432 2.304881,-2.350701 2.978969,-4.612729 2.977006,-9.98988 -0.0013,-3.981861 -0.284263,-5.649571 -1.299319,-7.661926 -0.690519,-1.36895 -2.506579,-3.219196 -3.806057,-3.87769 -1.844278,-0.934567 -2.513117,-1.007555 -9.232837,-1.007555 -3.708567,0 -6.66293,0.08039 -7.303063,0.198728 -3.1298309,0.578581 -5.8852981,3.259492 -6.9149365,6.727835 -0.2384753,0.803308 -0.2937103,1.896658 -0.2905915,5.752127 0.0037,4.54174 0.023803,4.81683 0.4384505,5.991672 1.146198,3.247599 3.3729506,5.445039 6.3203395,6.23714 1.247324,0.335214 13.292748,0.412654 14.774002,0.09498 z M 7.2402722,33.742304 C 6.99523,33.188221 6.7086607,32.269224 6.6034497,31.700088 c -0.2503343,-1.354186 -0.2461305,-6.630025 0.00637,-7.995934 0.6596612,-3.568432 3.5563983,-6.35124 6.8507583,-6.58131 l 1.260205,-0.08801 -1.172568,0.26982 c -1.334006,0.306968 -2.624952,1.098778 -3.8782929,2.378778 -1.9672146,2.009053 -2.521868,3.977618 -2.5214112,8.948955 1.822e-4,2.747486 0.069476,3.745056 0.3326296,4.793438 0.1827719,0.728146 0.3035903,1.323903 0.2684855,1.323903 -0.035106,0 -0.264313,-0.453341 -0.5093551,-1.007425 z M 39.102498,33.378285 c 1.024479,-0.529779 1.218976,-1.702142 0.436634,-2.631903 -0.578862,-0.687936 -1.584418,-0.772228 -2.31902,-0.194393 -0.95384,0.750293 -0.776092,2.369133 0.312164,2.842991 0.729467,0.317629 0.927787,0.315522 1.570222,-0.01669 z m -0.09496,-5.293719 c 0,-0.50099 -0.05295,-0.547821 -0.619223,-0.547821 -0.680064,0 -1.064963,0.396889 -0.87216,0.899325 0.08871,0.231172 0.293133,0.29543 0.80514,0.253079 0.628143,-0.05196 0.686243,-0.103143 0.686243,-0.604583 z m -0.09858,-1.634692 c 0.43009,-0.518225 0.153453,-0.921808 -0.631846,-0.921808 -0.553083,0 -0.740451,0.078 -0.788656,0.328335 -0.08634,0.4483 0.290545,0.858611 0.788656,0.858611 0.226489,0 0.510822,-0.119311 0.631846,-0.265138 z m 0.133377,-2.224878 c 0.174728,-0.455344 -0.198199,-0.888216 -0.765223,-0.888216 -0.567017,0 -0.93995,0.432872 -0.765222,0.888216 0.07645,0.19922 0.331354,0.29873 0.765222,0.29873 0.433869,0 0.688774,-0.09951 0.765223,-0.29873 z"
     id="path3050"
     inkscape:connector-curvature="0" />
</svg>
